PathFileType   4   (X/Y/Z)
DataRate	CameraRate	NumFrames	NumMarkers	Units	OrigDataRate	OrigDataStartFrame	OrigNumFrames
120.0	120.0	11	37	mm	120.0	103	136
Frame#	Time	midhip	hip_r	hip_l	knee_r	knee_l	ankle_r	ankle_l	midasis	asis_r	asis_l	psis_r	psis_l	epicondLat_r	epicondLat_l	epicondMed_r	epicondMed_l	malleolusLat_r	malleolusLat_l	malleolusMedv_r	malleolusMedv_l	neck	subclavicle_r	subclavicle_l	sternalnotch	xyphoidprocess	thighwand_r	thighwand_l	upperleg1_r	upperleg1_l	upperleg2_r	upperleg2_l	shankwand_r	shankwand_l	lowerleg1_r	lowerleg1_l	toe_r	toe_l
 	 	X1	Y1	Z1	X2	Y2	Z2	X3	Y3	Z3	X4	Y4	Z4	X5	Y5	Z5	X6	Y6	Z6	X7	Y7	Z7	X8	Y8	Z8	X9	Y9	Z9	X10	Y10	Z10	X11	Y11	Z11	X12	Y12	Z12	X13	Y13	Z13	X14	Y14	Z14	X15	Y15	Z15	X16	Y16	Z16	X17	Y17	Z17	X18	Y18	Z18	X19	Y19	Z19	X20	Y20	Z20	X21	Y21	Z21	X22	Y22	Z22	X23	Y23	Z23	X24	Y24	Z24	X25	Y25	Z25	X26	Y26	Z26	X27	Y27	Z27	X28	Y28	Z28	X29	Y29	Z29	X30	Y30	Z30	X31	Y31	Z31	X32	Y32	Z32	X33	Y33	Z33	X34	Y34	Z34	X35	Y35	Z35	X36	Y36	Z36	X37	Y37	Z37

	103	0.98333	821.112	687.998	-270.341	812.885	697.671	-206.830	812.112	693.693	-332.594	946.680	399.823	-203.102	800.298	381.902	-297.208	847.850	93.865	-195.262	769.557	59.446	-287.169	880.223	756.979	-272.067	880.805	759.973	-177.387	879.641	753.984	-366.746	738.171	799.678	-247.461	734.239	795.776	-301.748	947.120	400.652	-152.611	791.730	376.667	-346.190	962.690	392.555	-247.981	806.555	381.429	-243.987	839.467	97.400	-163.021	759.399	59.388	-320.140	856.521	101.077	-220.897	766.118	64.442	-258.530	797.336	1147.551	-286.557	880.079	1100.120	-223.164	872.275	1097.035	-352.295	870.155	1087.263	-289.659	884.876	944.075	-286.391	913.868	479.711	-72.258	929.247	472.318	-362.360	924.246	549.240	-138.437	872.079	537.437	-302.829	969.315	477.224	-151.253	856.559	453.114	-285.226	851.311	202.289	-93.220	856.110	148.505	-339.706	886.292	247.166	-151.343	804.332	210.533	-313.842	933.879	60.100	-173.467	859.656	36.677	-305.348
	104	0.99167	828.169	687.647	-270.587	820.023	697.298	-207.164	819.220	693.233	-332.924	957.014	400.601	-204.543	804.979	381.502	-297.265	870.900	89.975	-195.739	769.816	59.469	-287.011	887.172	756.752	-272.462	887.776	759.812	-177.782	886.568	753.692	-367.142	744.801	799.117	-247.642	741.046	795.139	-301.986	957.114	401.093	-154.045	796.268	376.300	-346.225	971.711	393.510	-249.647	811.507	381.097	-244.263	862.542	93.207	-163.459	759.714	59.521	-319.999	878.459	97.645	-221.455	766.601	64.464	-258.405	804.200	1147.144	-286.684	886.982	1099.634	-223.289	879.152	1096.632	-352.353	877.024	1086.821	-289.722	891.729	943.628	-286.581	922.407	479.473	-73.513	934.557	471.045	-362.792	932.121	549.302	-139.384	878.250	536.555	-303.264	977.648	477.854	-152.514	862.028	452.321	-285.617	870.319	198.683	-93.732	857.694	147.221	-339.496	902.869	245.030	-152.110	806.828	210.051	-313.831	958.381	60.038	-174.725	859.817	36.628	-305.306
	105	1.00000	835.234	687.208	-270.811	827.188	696.848	-207.485	826.302	692.688	-333.242	967.016	401.202	-205.983	809.621	381.068	-297.339	893.974	86.433	-196.260	770.085	59.522	-286.844	894.125	756.438	-272.878	894.791	759.569	-178.208	893.458	753.306	-367.548	751.474	798.473	-247.794	747.886	794.418	-302.208	966.796	401.355	-155.484	800.726	375.906	-346.270	980.410	394.168	-251.326	816.718	380.545	-244.564	885.648	89.363	-163.943	760.036	59.680	-319.848	900.288	94.434	-222.028	766.967	64.528	-258.228	811.076	1146.604	-286.769	893.802	1099.158	-223.365	886.086	1096.170	-352.411	883.916	1086.314	-289.753	898.708	943.164	-286.663	930.771	479.057	-74.747	939.787	469.698	-363.338	940.306	549.092	-140.298	884.320	535.571	-303.704	985.883	478.156	-153.707	867.577	451.451	-286.064	889.281	195.245	-94.277	859.238	145.962	-339.281	919.375	242.912	-152.832	809.299	209.560	-313.836	982.760	60.300	-176.065	859.974	36.589	-305.253
	106	1.00833	842.304	686.670	-271.015	834.385	696.312	-207.792	833.363	692.053	-333.544	976.671	401.602	-207.413	814.211	380.601	-297.426	917.022	83.264	-196.829	770.363	59.606	-286.666	901.085	756.030	-273.309	901.855	759.236	-178.657	900.316	752.825	-367.960	758.192	797.733	-247.918	754.761	793.605	-302.410	976.182	401.431	-156.916	805.098	375.491	-346.322	988.584	394.566	-253.190	821.980	379.854	-244.735	908.727	85.894	-164.479	760.365	59.865	-319.684	922.859	91.592	-222.618	767.277	64.620	-258.027	817.959	1146.026	-286.795	900.570	1098.615	-223.334	893.065	1095.587	-352.428	890.839	1085.728	-289.758	905.600	942.603	-286.595	939.028	478.483	-75.944	944.934	468.279	-363.978	949.219	548.777	-141.368	890.236	534.495	-304.082	994.120	478.184	-155.002	873.064	450.497	-286.441	908.130	191.995	-94.865	860.736	144.734	-339.063	935.734	240.874	-153.677	811.678	208.984	-313.798	1006.955	60.896	-177.478	860.121	36.560	-305.191
	107	1.01667	849.394	686.028	-271.214	841.621	695.678	-208.084	840.417	691.327	-333.832	985.986	401.779	-208.823	818.741	380.109	-297.521	939.994	80.493	-197.447	770.648	59.722	-286.475	908.062	755.527	-273.747	908.968	758.802	-179.117	907.155	752.253	-368.376	764.958	796.888	-248.014	761.670	792.696	-302.588	985.299	401.315	-158.330	809.384	375.061	-346.377	996.160	394.408	-254.806	826.996	379.283	-244.814	931.719	82.824	-165.069	760.694	60.077	-319.506	945.454	89.237	-223.381	767.700	64.678	-257.851	824.909	1145.364	-286.803	907.365	1097.949	-223.251	900.083	1094.951	-352.392	897.767	1085.058	-289.724	912.483	941.950	-286.556	947.241	477.777	-77.093	950.003	466.795	-364.681	958.048	548.366	-142.559	896.242	533.327	-304.578	1002.149	477.863	-156.304	878.445	449.474	-286.825	926.807	188.951	-95.505	862.184	143.540	-338.843	951.911	238.956	-154.604	813.977	208.398	-313.747	1030.907	61.836	-178.956	860.255	36.545	-305.122
	108	1.02500	856.518	685.280	-271.418	848.899	694.939	-208.366	847.477	690.515	-334.109	994.983	401.720	-210.205	823.201	379.599	-297.619	962.840	78.138	-198.114	770.937	59.873	-286.271	915.059	754.928	-274.183	916.129	758.257	-179.574	913.989	751.599	-368.792	771.780	795.932	-248.088	768.613	791.693	-302.738	994.184	401.005	-159.716	813.591	374.620	-346.433	1003.252	393.962	-256.216	831.823	378.678	-245.032	954.566	80.170	-165.716	761.022	60.321	-319.313	967.636	87.113	-224.120	768.152	64.731	-257.658	831.940	1144.557	-286.774	914.316	1097.142	-223.179	907.151	1094.253	-352.306	904.689	1084.302	-289.641	919.546	941.200	-286.601	955.458	476.959	-78.189	955.009	465.260	-365.414	966.266	547.777	-143.625	902.281	532.042	-305.155	1009.847	477.354	-157.573	883.739	448.349	-287.313	945.261	186.132	-96.204	863.583	142.385	-338.623	967.819	237.106	-155.568	816.214	207.867	-313.669	1054.555	63.129	-180.494	860.373	36.541	-305.046
	109	1.03333	863.697	684.425	-271.643	856.222	694.088	-208.643	854.560	689.623	-334.381	1003.702	401.424	-211.554	827.589	379.078	-297.718	985.499	76.211	-198.833	771.226	60.061	-286.052	922.089	754.235	-274.609	923.340	757.594	-180.014	920.839	750.876	-369.204	778.667	794.860	-248.139	775.588	790.599	-302.857	1002.875	400.505	-161.069	817.729	374.176	-346.490	1010.516	393.517	-257.583	836.560	378.048	-245.346	977.208	77.942	-166.422	761.346	60.598	-319.102	989.573	85.282	-224.861	768.463	64.850	-257.411	838.976	1143.635	-286.684	921.361	1096.178	-223.077	914.242	1093.440	-352.183	911.642	1083.456	-289.522	926.684	940.314	-286.670	963.709	476.046	-79.232	959.972	463.691	-366.140	973.986	547.073	-144.609	908.284	530.704	-305.721	1017.497	476.859	-158.856	888.978	447.229	-287.849	963.459	183.551	-96.963	864.938	141.275	-338.404	983.423	235.308	-156.546	818.385	207.364	-313.564	1077.841	64.779	-182.087	860.475	36.546	-304.966
	110	1.04167	870.942	683.470	-271.896	863.599	693.119	-208.917	861.684	688.660	-334.653	1012.187	400.898	-212.864	831.906	378.555	-297.816	1007.908	74.720	-199.606	771.516	60.290	-285.816	929.163	753.451	-275.017	930.604	756.805	-180.425	927.723	750.096	-369.609	785.626	793.675	-248.169	782.595	789.421	-302.942	1011.411	399.822	-162.382	821.812	373.735	-346.549	1018.207	392.938	-258.707	840.998	377.534	-245.692	999.584	76.146	-167.188	761.666	60.913	-318.874	1011.440	83.905	-225.679	768.638	65.063	-257.133	845.978	1142.595	-286.528	928.220	1095.175	-222.871	920.952	1092.528	-351.958	918.646	1082.518	-289.378	933.382	939.351	-286.569	972.009	475.046	-80.231	964.917	462.105	-366.828	980.740	546.213	-145.425	914.112	529.446	-306.157	1025.116	476.245	-160.079	894.001	446.239	-288.325	981.383	181.215	-97.781	866.254	140.211	-338.188	998.764	233.622	-157.544	820.493	206.928	-313.459	1100.705	66.784	-183.730	860.561	36.556	-304.879
	111	1.05000	878.267	682.421	-272.183	871.035	692.031	-209.194	868.865	687.633	-334.927	1020.486	400.161	-214.133	836.157	378.036	-297.912	1029.995	73.663	-200.436	771.809	60.562	-285.564	936.292	752.578	-275.400	937.925	755.887	-180.799	934.659	749.269	-370.002	792.664	792.382	-248.175	789.634	788.166	-302.988	1019.826	398.968	-163.652	825.859	373.301	-346.610	1025.429	392.136	-259.895	845.452	376.864	-246.105	1021.635	74.780	-168.015	761.982	61.268	-318.627	1033.009	83.011	-226.570	768.872	65.303	-256.862	853.026	1141.479	-286.372	935.049	1094.190	-222.619	927.697	1091.542	-351.736	925.704	1081.493	-289.209	940.115	938.363	-286.333	980.356	473.963	-81.194	969.872	460.520	-367.451	987.757	545.263	-146.228	919.749	528.212	-306.407	1032.722	475.363	-161.370	898.959	445.236	-288.738	999.028	179.131	-98.653	867.540	139.197	-337.979	1013.796	232.116	-158.527	822.558	206.608	-313.343	1123.095	69.130	-185.420	860.636	36.565	-304.787
	112	1.05833	885.671	681.286	-272.501	878.535	690.828	-209.471	876.112	686.551	-335.204	1028.642	399.234	-215.358	840.356	377.529	-298.007	1051.691	73.029	-201.326	772.110	60.877	-285.292	943.485	751.621	-275.754	945.309	754.840	-181.130	941.661	748.402	-370.378	799.783	790.990	-248.152	796.707	786.842	-302.993	1028.143	397.958	-164.877	829.889	372.881	-346.677	1032.078	390.911	-261.098	850.275	376.039	-246.538	1043.302	73.831	-168.903	762.298	61.664	-318.358	1054.108	82.591	-227.590	769.287	65.534	-256.609	860.166	1140.365	-286.247	942.099	1093.011	-222.356	935.268	1090.510	-351.671	932.815	1080.381	-289.018	947.598	937.266	-286.324	988.740	472.790	-82.133	974.862	458.949	-367.991	995.780	544.190	-147.200	925.532	526.962	-306.595	1040.406	474.162	-162.670	904.172	444.171	-289.148	1016.394	177.301	-99.568	868.804	138.236	-337.782	1028.564	230.771	-159.508	824.546	206.275	-313.201	1144.957	71.791	-187.153	860.702	36.569	-304.687
	113	1.06667	893.146	680.070	-272.837	886.102	689.513	-209.749	883.431	685.419	-335.483	1036.688	398.143	-216.540	844.517	377.041	-298.100	1072.921	72.796	-202.277	772.426	61.239	-285.001	950.749	750.584	-276.073	952.760	753.666	-181.415	948.738	747.501	-370.731	806.988	789.507	-248.098	803.819	785.457	-302.953	1036.381	396.808	-166.058	833.924	372.480	-346.752	1038.990	389.424	-262.231	854.982	375.412	-246.969	1064.525	73.283	-169.850	762.620	62.106	-318.067	1074.756	82.552	-228.728	769.773	65.832	-256.340	867.327	1139.177	-286.055	949.221	1091.681	-222.110	942.828	1089.405	-351.526	939.985	1079.182	-288.807	955.062	936.055	-286.374	997.141	471.521	-83.058	979.913	457.401	-368.439	1003.327	542.849	-148.242	931.440	525.754	-306.779	1048.068	472.825	-164.047	909.399	443.234	-289.544	1033.481	175.723	-100.517	870.054	137.331	-337.600	1043.217	229.558	-160.568	826.450	205.806	-313.023	1166.244	74.725	-188.928	860.763	36.563	-304.582
